<?xml version="1.0" encoding="UTF-8" standalone="no"?>
<!-- Generator: Adobe Illustrator 22.1.0, SVG Export Plug-In . SVG Version: 6.00 Build 0)  -->

<svg
   xmlns:dc="http://purl.org/dc/elements/1.1/"
   xmlns:cc="http://creativecommons.org/ns#"
   xmlns:rdf="http://www.w3.org/1999/02/22-rdf-syntax-ns#"
   xmlns:svg="http://www.w3.org/2000/svg"
   xmlns="http://www.w3.org/2000/svg"
   xmlns:sodipodi="http://sodipodi.sourceforge.net/DTD/sodipodi-0.dtd"
   xmlns:inkscape="http://www.inkscape.org/namespaces/inkscape"
   version="1.1"
   id="Layer_1"
   x="0px"
   y="0px"
   viewBox="0 0 28 27"
   xml:space="preserve"
   sodipodi:docname="icons-sort.svg"
   width="28"
   height="27"
   inkscape:version="0.92.2 (5c3e80d, 2017-08-06)"><metadata
     id="metadata9"><rdf:RDF><cc:Work
         rdf:about=""><dc:format>image/svg+xml</dc:format><dc:type
           rdf:resource="http://purl.org/dc/dcmitype/StillImage" /><dc:title></dc:title></cc:Work></rdf:RDF></metadata><defs
     id="defs7" /><sodipodi:namedview
     pagecolor="#ffffff"
     bordercolor="#666666"
     borderopacity="1"
     objecttolerance="10"
     gridtolerance="10"
     guidetolerance="10"
     inkscape:pageopacity="0"
     inkscape:pageshadow="2"
     inkscape:window-width="1920"
     inkscape:window-height="986"
     id="namedview5"
     showgrid="false"
     showguides="true"
     inkscape:guide-bbox="true"
     inkscape:zoom="18.247277"
     inkscape:cx="19.801886"
     inkscape:cy="19.000289"
     inkscape:window-x="-11"
     inkscape:window-y="-11"
     inkscape:window-maximized="1"
     inkscape:current-layer="g131" /><g
     id="g131"
     transform="translate(-1.260462,9.411319)"><g
       id="g62"><polygon
         points="3.2,0.6 8.5,6 3.2,11.4 2.5,10.7 7.1,6 2.5,1.4 "
         id="polygon2-7"
         transform="matrix(0,-0.7983686,1,0,2.0454958,8.036438)"
         style="opacity:1;vector-effect:none;fill:#000000;fill-opacity:1;stroke:#000000;stroke-width:1;stroke-linecap:butt;stroke-linejoin:miter;stroke-miterlimit:4;stroke-dasharray:none;stroke-dashoffset:0;stroke-opacity:1" /><polygon
         points="8.5,6 3.2,11.4 2.5,10.7 7.1,6 2.5,1.4 3.2,0.6 "
         id="polygon2-6"
         transform="matrix(0,-1,1.1522297,0,1.2268546,19.316434)"
         style="opacity:1;vector-effect:none;fill:#000000;fill-opacity:1;stroke-width:1;stroke-linecap:butt;stroke-linejoin:miter;stroke-miterlimit:4;stroke-dasharray:none;stroke-dashoffset:0;stroke-opacity:1" /><polygon
         points="7.1,6 2.5,1.4 3.2,0.6 8.5,6 3.2,11.4 2.5,10.7 "
         id="polygon2-6-3"
         transform="matrix(0,1,-1.1522297,0,29.164908,-1.790549)"
         style="opacity:1;vector-effect:none;fill:#000000;fill-opacity:1;stroke-width:1;stroke-linecap:butt;stroke-linejoin:miter;stroke-miterlimit:4;stroke-dasharray:none;stroke-dashoffset:0;stroke-opacity:1" /><polygon
         points="3.2,11.4 2.5,10.7 7.1,6 2.5,1.4 3.2,0.6 8.5,6 "
         id="polygon2-7-0"
         transform="matrix(0,0.7983686,-1,0,28.31773,9.4699781)"
         style="opacity:1;vector-effect:none;fill:#000000;fill-opacity:1;stroke:#000000;stroke-width:1;stroke-linecap:butt;stroke-linejoin:miter;stroke-miterlimit:4;stroke-dasharray:none;stroke-dashoffset:0;stroke-opacity:1" /><polygon
         points="7.1,6 2.5,1.4 3.2,0.6 8.5,6 3.2,11.4 2.5,10.7 "
         id="polygon2-6-3-6"
         transform="matrix(0,1,-1.1522297,0,29.120606,-10.751821)"
         style="opacity:1;vector-effect:none;fill:#000000;fill-opacity:1;stroke-width:1;stroke-linecap:butt;stroke-linejoin:miter;stroke-miterlimit:4;stroke-dasharray:none;stroke-dashoffset:0;stroke-opacity:1" /><polygon
         points="7.1,6 2.5,1.4 3.2,0.6 8.5,6 3.2,11.4 2.5,10.7 "
         id="polygon2-6-5"
         transform="matrix(0,-1,1.1522297,0,1.0878156,0.248179)"
         style="opacity:1;vector-effect:none;fill:#000000;fill-opacity:1;stroke-width:1;stroke-linecap:butt;stroke-linejoin:miter;stroke-miterlimit:4;stroke-dasharray:none;stroke-dashoffset:0;stroke-opacity:1" /></g></g></svg>