<?xml version="1.0" encoding="utf-8"?>
<!-- Generator: Adobe Illustrator 22.1.0, SVG Export Plug-In . SVG Version: 6.00 Build 0)  -->
<svg version="1.1" id="Ebene_1" xmlns="http://www.w3.org/2000/svg" xmlns:xlink="http://www.w3.org/1999/xlink" x="0px" y="0px"
	 viewBox="0 0 18.2 18.4" style="enable-background:new 0 0 18.2 18.4;" xml:space="preserve">
<g>
	<path d="M17.5,7.8l-7-7c-0.4-0.4-0.9-0.6-1.4-0.6s-1,0.2-1.4,0.6l-7,7c-0.8,0.8-0.8,2,0,2.8l7,7c0.4,0.4,0.9,0.6,1.4,0.6
		s1-0.2,1.4-0.6l7-7C18.3,9.8,18.3,8.6,17.5,7.8z M16.7,9.8l-7,7c-0.2,0.2-0.4,0.2-0.6,0.2S8.7,17,8.5,16.8l-7-7
		C1.3,9.6,1.2,9.4,1.2,9.2s0.1-0.4,0.2-0.6l7-7c0.2-0.2,0.4-0.2,0.6-0.2s0.4,0.1,0.6,0.2l7,7C16.9,8.8,17,9,17,9.2
		S16.9,9.6,16.7,9.8z"/>
	<polygon points="9.5,11 9.8,7.3 9.8,4.7 8.4,4.7 8.4,7.3 8.8,11 	"/>
	<rect x="8.4" y="12.2" width="1.5" height="1.5"/>
</g>
</svg>
