<?xml version="1.0" encoding="utf-8"?>
<!-- Generator: Adobe Illustrator 19.2.1, SVG Export Plug-In . SVG Version: 6.00 Build 0)  -->
<svg version="1.1" id="Ebene_1" xmlns="http://www.w3.org/2000/svg" xmlns:xlink="http://www.w3.org/1999/xlink" x="0px" y="0px"
	 viewBox="0 0 18 18" style="enable-background:new 0 0 18 18;" xml:space="preserve" fill="#D8DADA">
<g>
	<path d="M0,0v2.25V18h18V2.25V0H0z M16.875,16.875H1.125v-13.5h15.75V16.875z M1.125,2.25V1.125h15.75V2.25H1.125z"/>
	<path d="M6.925,13.755c-1.403,0-2.284-0.756-2.321-2.122h-1.03c0.037,1.937,1.514,2.992,3.388,2.992
		c1.725,0,3.053-0.931,3.053-2.557c0-1.104-0.521-1.862-1.713-2.172V9.859c0.82-0.273,1.403-0.831,1.403-1.788
		c0-1.477-1.253-2.334-2.83-2.334c-1.875,0-3.004,1.117-3.016,2.793h1.018c0-1.18,0.732-1.974,1.96-1.974
		c1.018,0,1.849,0.558,1.849,1.49c0,0.906-0.67,1.464-1.998,1.464H6.167v0.807h0.534c1.427,0,2.234,0.572,2.234,1.652
		C8.935,13.172,8.104,13.755,6.925,13.755z"/>
	<path d="M12.999,14.438h1.043V5.887h-0.807C13.074,7.14,12.18,7.526,11.138,7.55v0.695h1.862V14.438z"/>
</g>
</svg>
