<svg xmlns="http://www.w3.org/2000/svg" width="18" height="18" viewBox="0 0 18 18">
  <g id="my-account" transform="translate(-0.2 -0.3)">
    <path id="Path_1" data-name="Path 1" d="M9.2.3a9,9,0,1,0,9,9A8.963,8.963,0,0,0,9.2.3Zm0,1.1a7.917,7.917,0,0,1,7.9,7.9,7.649,7.649,0,0,1-1.9,5.1,7.734,7.734,0,0,0-6-2.9,7.888,7.888,0,0,0-6,2.9A8.416,8.416,0,0,1,1.3,9.3,7.917,7.917,0,0,1,9.2,1.4ZM4,15.2a6.4,6.4,0,0,1,5.2-2.5,6.539,6.539,0,0,1,5.2,2.5,8,8,0,0,1-5.2,2A8,8,0,0,1,4,15.2Z" fill="#fff"/>
    <path id="Path_2" data-name="Path 2" d="M9.2,10.4A3.4,3.4,0,1,0,5.8,7,3.436,3.436,0,0,0,9.2,10.4Zm0-5.6A2.2,2.2,0,1,1,7,7,2.22,2.22,0,0,1,9.2,4.8Z" fill="#fff"/>
  </g>
</svg>
