<svg xmlns="http://www.w3.org/2000/svg" width="18" height="372.6" viewBox="0 0 18 372.6">
  <g id="Group_1" data-name="Group 1" transform="translate(-508.9 -380.9)">
    <path id="Shape" d="M10.2,547a8.963,8.963,0,1,1,6.375-2.625A9,9,0,0,1,10.2,547Zm0-16.2a7.2,7.2,0,1,0,7.2,7.2,7.2,7.2,0,0,0-7.2-7.2Z" transform="translate(507.7 88.3)" fill="#de762b"/>
    <g id="Group" transform="translate(508.7 735.3)">
      <path id="Shape-2" data-name="Shape" d="M9.2,18.2a8.963,8.963,0,1,1,6.375-2.625A9,9,0,0,1,9.2,18.2Zm0-17.1A8.2,8.2,0,0,0,1.1,9.2a8.1,8.1,0,0,0,16.2,0A8.2,8.2,0,0,0,9.2,1.1Z"/>
      <circle id="SVGID_5_" cx="3.6" cy="3.6" r="3.6" transform="translate(5.636 12.829) rotate(-89.723)" fill="#010101"/>
    </g>
    <path id="Shape-3" data-name="Shape" d="M10.2,450.6a8.963,8.963,0,1,1,6.375-2.625A9,9,0,0,1,10.2,450.6Zm0-17.1a8.114,8.114,0,1,0,8.1,8.1A8.2,8.2,0,0,0,10.2,433.5Z" transform="translate(507.7 -51.7)"/>
    <path id="Shape-4" data-name="Shape" d="M10.2,498.8a8.963,8.963,0,1,1,6.375-2.625A9,9,0,0,1,10.2,498.8Zm0-17.1a8.114,8.114,0,1,0,8.1,8.1,8.2,8.2,0,0,0-8.1-8.1Z" transform="translate(507.7 18.3)" fill="#d8dada"/>
  </g>
</svg>
